# xmcd
#
# Track frame offsets:
#	150
#	14192
#	31691
#	52530
#	66710
#	81518
#	94674
#	110949
#	138306
#	149667
#	168730
#	183845
#
# Disc length: 2622 seconds
# Revision: 0
# Processed by: cddbd v1.5.2PL0 Copyright (c) Steve Scherf et al.
# Submitted via: dBpowerAMP V12.0
#
DISCID=b10a3c0c
DTITLE=Ben Racine Band - One of a Kind
DYEAR=2012
DGENRE=Blues
TTITLE0=One of a Kind
TTITLE1=Early Times
TTITLE2=Modus Operandi
TTITLE3=Shake a Hand
TTITLE4=Too Busy Being Pretty
TTITLE5=Mighty Good Time
TTITLE6=Walking the Dog
TTITLE7=Bad Lil' Lady
TTITLE8=Bad Boy
TTITLE9=Snap Jab
TTITLE10=Hot Grease
TTITLE11=Marauder
EXTD=
EXTT0=
EXTT1=
EXTT2=
EXTT3=
EXTT4=
EXTT5=
EXTT6=
EXTT7=
EXTT8=
EXTT9=
EXTT10=
EXTT11=
PLAYORDER=
